<?xml version="1.0"?>
<svg width="16" height="16" xmlns="http://www.w3.org/2000/svg">
 <g>
  <title>Layer 1</title>
  <path d="m0.88889,3.57803c-0.49245,0 -0.88889,0.3968 -0.88889,0.8892v8.2228c0,0.492 0.39644,0.888 0.88889,0.888h14.22201c0.493,0 0.889,-0.396 0.889,-0.888v-8.2228c0,-0.4924 -0.396,-0.8892 -0.889,-0.8892l-14.22201,0zm0.75,1.0281l6.0833,6.0833h0.527781l6.11113,-6.0833l0.6111,0.61111l-3.638901,3.6944l2.75,2.80559l-0.611099,0.6111l-2.8056,-2.80558l-2.02783,2.05558h-1.2778l-2.0271,-2.05518l-2.8055,2.833179l-0.6111,-0.639l2.7777,-2.80538l-3.6666,-3.6944l0.61052,-0.61142z" fill="white"/>
 </g>
</svg>